HIERARCHY
ROOT Hips
{
 OFFSET 0.000000 0.000000 0.000000
 CHANNELS 6 Xposition Yposition Zposition Yrotation Xrotation Zrotation
 JOINT Chest
 {
  OFFSET 0.000000 9.585900 0.002600
  CHANNELS 3 Yrotation Xrotation Zrotation
  JOINT Chest2
  {
   OFFSET 0.000000 9.601200 -0.005300
   CHANNELS 3 Yrotation Xrotation Zrotation
   JOINT Chest3
   {
    OFFSET 0.000000 9.561800 0.000000
    CHANNELS 3 Yrotation Xrotation Zrotation
    JOINT Chest4
    {
     OFFSET 0.000000 9.552100 0.000000
     CHANNELS 3 Yrotation Xrotation Zrotation
     JOINT Neck
     {
      OFFSET 0.000000 14.453000 0.000000
      CHANNELS 3 Yrotation Xrotation Zrotation
      JOINT Head
      {
       OFFSET 0.000000 8.936500 -0.011300
       CHANNELS 3 Yrotation Xrotation Zrotation
       End Site
       {
        OFFSET 0.000000 17.073600 -0.006000
       }
      }
     }
     JOINT RightCollar
     {
      OFFSET -2.921100 9.558500 0.000000
      CHANNELS 3 Yrotation Xrotation Zrotation
      JOINT RightShoulder
      {
       OFFSET -13.519700 0.000000 0.000000
       CHANNELS 3 Yrotation Xrotation Zrotation
       JOINT RightElbow
       {
        OFFSET 0.000000 -29.696600 0.000000
        CHANNELS 3 Yrotation Xrotation Zrotation
        JOINT RightWrist
        {
         OFFSET 0.000000 -24.004700 0.000000
         CHANNELS 3 Yrotation Xrotation Zrotation
         End Site
         {
          OFFSET 0.000000 -17.728500 0.000000
         }
        }
       }
      }
     }
     JOINT LeftCollar
     {
      OFFSET 2.921100 9.558500 0.000000
      CHANNELS 3 Yrotation Xrotation Zrotation
      JOINT LeftShoulder
      {
       OFFSET 13.519700 0.000000 0.000000
       CHANNELS 3 Yrotation Xrotation Zrotation
       JOINT LeftElbow
       {
        OFFSET 0.000000 -29.696600 0.000000
        CHANNELS 3 Yrotation Xrotation Zrotation
        JOINT LeftWrist
        {
         OFFSET 0.000000 -24.004700 0.000000
         CHANNELS 3 Yrotation Xrotation Zrotation
         End Site
         {
          OFFSET 0.000000 -17.728500 0.000000
         }
        }
       }
      }
     }
    }
   }
  }
 }
 JOINT RightHip
 {
  OFFSET -7.771700 -0.012900 -0.001300
  CHANNELS 3 Yrotation Xrotation Zrotation
  JOINT RightKnee
  {
   OFFSET 0.000000 -40.869800 0.001200
   CHANNELS 3 Yrotation Xrotation Zrotation
   JOINT RightAnkle
   {
    OFFSET 0.000000 -39.717900 0.002100
    CHANNELS 3 Yrotation Xrotation Zrotation
    JOINT RightToe
    {
     OFFSET 0.000000 -4.965400 11.033500
     CHANNELS 3 Yrotation Xrotation Zrotation
     End Site
     {
      OFFSET 0.000000 -1.423100 5.872300
     }
    }
   }
  }
 }
 JOINT LeftHip
 {
  OFFSET 7.771700 -0.012900 -0.001300
  CHANNELS 3 Yrotation Xrotation Zrotation
  JOINT LeftKnee
  {
   OFFSET 0.000000 -40.869800 0.001200
   CHANNELS 3 Yrotation Xrotation Zrotation
   JOINT LeftAnkle
   {
    OFFSET 0.000000 -39.717900 0.002100
    CHANNELS 3 Yrotation Xrotation Zrotation
    JOINT LeftToe
    {
     OFFSET 0.000000 -4.965400 11.033500
     CHANNELS 3 Yrotation Xrotation Zrotation
     End Site
     {
      OFFSET 0.000000 -1.423100 5.872300
     }
    }
   }
  }
 }
}
MOTION
Frames: 11
Frame Time: 0.008333
0.000000 85.388000 0.000000 0.000000 -5.767877 0.000000 0.000000 11.653817 0.000000 0.000000 -5.885947 0.000000 0.000000 -0.000000 0.000000 0.000000 -0.000000 0.000000 0.000000 12.528835 0.000000 0.000000 0.711642 0.000000 0.000000 -0.000000 0.000000 0.000000 0.000000 -90.000000 0.000000 -2.309062 0.000000 0.000000 2.309062 0.000000 0.000000 -0.000000 0.000000 0.000000 -0.000000 90.000000 0.000000 -2.309062 0.000000 0.000000 2.309062 0.000000 0.000000 8.520406 0.000000 0.000000 1.905762 0.000000 -0.000000 -4.658285 0.000000 0.000000 -0.000000 0.000000 0.000000 8.520406 0.000000 0.000000 1.905762 0.000000 -0.000000 -4.658285 0.000000 0.000000 -0.000000 0.000000
16.133390 49.916275 54.487580 173.602841 -33.804868 -7.222596 8.701137 24.078016 6.457180 1.246607 4.013421 0.661417 2.056896 6.405753 1.099212 6.933050 19.948365 4.367645 -4.472995 21.002150 4.594245 -9.411826 3.740280 9.597554 -2.753818 -2.990166 -7.419436 11.971046 -7.835054 -1.076218 162.923090 -67.486678 -164.937097 -2.128915 -11.781132 29.004202 -12.884734 -2.327931 1.616234 -4.137421 -14.328294 2.188239 -153.701982 -64.908585 153.225932 14.256567 0.703212 -34.242575 -2.456200 -46.589791 10.797334 -120.841565 85.760663 -108.723621 -1.579025 -12.564113 -4.657696 -0.149767 0.761642 -0.099216 -9.775016 -50.678609 16.688319 -156.656374 80.746192 -164.040123 -0.049592 -17.363061 7.085923 -0.165910 -0.515926 -0.071290
16.132355 49.918542 54.492719 173.591100 -33.804518 -7.217833 8.676993 24.070220 6.444050 1.202260 3.995130 0.658163 2.087870 6.420324 1.098108 6.833874 19.920281 4.354159 -4.417179 20.917501 4.550414 -9.306428 3.572144 9.510476 -2.731020 -3.034051 -7.402077 12.044819 -7.859755 -1.054888 162.912257 -67.629488 -164.936578 -2.088550 -11.764736 29.147127 -12.833603 -2.325580 1.613284 -4.035326 -14.230120 2.210452 -153.917134 -65.041892 153.408210 14.292833 0.752840 -34.126680 -2.460107 -46.590632 10.798582 -120.797963 85.772444 -108.680246 -1.556815 -12.545214 -4.668519 -0.143282 0.752302 -0.095012 -9.746789 -50.675468 16.678321 -156.694382 80.760756 -164.068126 -0.065711 -17.368439 7.085707 -0.163900 -0.505941 -0.067530
16.131985 49.921597 54.497556 173.578300 -33.806951 -7.216440 8.654807 24.062787 6.435011 1.155229 3.973552 0.655332 1.999963 6.378038 1.090967 6.849444 19.946640 4.341743 -4.363690 20.825085 4.499864 -9.204026 3.389169 9.412402 -2.718879 -3.079364 -7.386421 12.114668 -7.881623 -1.026449 162.737685 -67.755871 -164.781268 -2.020441 -11.758339 29.261085 -12.783201 -2.323818 1.607817 -3.921039 -14.113690 2.240004 -154.170792 -65.193025 153.621775 14.336736 0.799850 -34.007023 -2.465992 -46.588030 10.804472 -120.723095 85.781835 -108.606622 -1.525356 -12.524630 -4.675064 -0.148088 0.741926 -0.095666 -9.737508 -50.668766 16.684983 -156.734525 80.772982 -164.106963 -0.078165 -17.365664 7.084504 -0.166034 -0.507587 -0.066702
16.134977 49.924780 54.503308 173.557552 -33.803075 -7.230785 8.605042 24.036926 6.428800 1.146383 3.960315 0.654669 1.955541 6.353389 1.087181 6.819709 19.950073 4.330714 -4.316296 20.722102 4.444370 -9.112006 3.186865 9.307969 -2.721107 -3.123138 -7.371245 12.182666 -7.901134 -0.987516 162.392367 -67.858987 -164.463698 -1.930536 -11.772104 29.336039 -12.734655 -2.322883 1.599897 -3.799446 -13.983068 2.280739 -154.434453 -65.359712 153.843345 14.384777 0.833880 -33.871512 -2.487526 -46.588965 10.837113 -120.549795 85.791629 -108.427204 -1.487698 -12.495163 -4.695622 -0.152277 0.728206 -0.091564 -9.739444 -50.666850 16.719360 -156.730214 80.781385 -164.095730 -0.069321 -17.369990 7.076413 -0.169855 -0.508184 -0.067868
16.134789 49.928278 54.506452 173.549286 -33.802769 -7.229671 8.486946 23.996902 6.380710 1.181991 3.970119 0.654088 1.934956 6.338161 1.084209 6.763699 19.940052 4.320776 -4.277255 20.607068 4.387136 -9.035573 2.963183 9.203692 -2.736470 -3.164703 -7.356407 12.253964 -7.917811 -0.934738 161.912151 -67.943357 -164.019903 -1.822711 -11.801743 29.370774 -12.685921 -2.324765 1.593932 -3.671518 -13.839585 2.333193 -154.676592 -65.541311 154.044641 14.440252 0.842081 -33.713341 -2.496146 -46.587439 10.842093 -120.486014 85.796768 -108.363624 -1.467316 -12.480025 -4.706405 -0.162526 0.718333 -0.088673 -9.722017 -50.662462 16.717505 -156.720546 80.790821 -164.081300 -0.073297 -17.367988 7.074204 -0.170061 -0.508696 -0.065434
16.135496 49.931875 54.508010 173.547082 -33.801060 -7.233806 8.473809 23.988450 6.379394 1.118915 3.932511 0.653283 1.913300 6.320732 1.080962 6.705094 19.927359 4.310328 -4.248577 20.480951 4.330016 -8.978827 2.720309 9.103246 -2.755340 -3.202141 -7.346835 12.329383 -7.931905 -0.867603 161.369542 -68.020192 -163.518842 -1.700169 -11.836570 29.377236 -12.630990 -2.327581 1.590832 -3.535407 -13.684051 2.396875 -154.884171 -65.735353 154.213531 14.498803 0.817525 -33.528391 -2.505868 -46.586146 10.850272 -120.410129 85.798169 -108.282296 -1.469220 -12.470074 -4.715360 -0.167853 0.708986 -0.085265 -9.713400 -50.659841 16.723411 -156.700087 80.797624 -164.059247 -0.080212 -17.361564 7.079511 -0.167420 -0.513901 -0.066053
16.136299 49.936160 54.506264 173.545239 -33.807072 -7.233604 8.342634 23.948879 6.332052 1.151388 3.944871 0.650762 1.889935 6.300409 1.077501 6.642395 19.911112 4.299525 -4.232308 20.345993 4.273437 -8.945376 2.462537 9.007998 -2.770932 -3.235799 -7.348811 12.407342 -7.946955 -0.788415 160.833204 -68.101900 -163.023266 -1.578292 -11.870136 29.380980 -12.565664 -2.332631 1.586802 -3.390753 -13.515472 2.470911 -155.051620 -65.931935 154.344320 14.547645 0.764861 -33.318452 -2.509939 -46.576805 10.854459 -120.384366 85.800140 -108.254715 -1.479757 -12.466227 -4.717507 -0.162178 0.701955 -0.085511 -9.690761 -50.648365 16.723948 -156.637084 80.798001 -164.005150 -0.075192 -17.357348 7.099856 -0.181896 -0.522937 -0.069679
16.138736 49.939474 54.504047 173.537724 -33.801687 -7.236805 8.247271 23.915958 6.305882 1.153169 3.937810 0.647904 1.864758 6.277885 1.073712 6.574932 19.892504 4.287889 -4.228016 20.205875 4.218233 -8.934296 2.196687 8.919191 -2.782222 -3.272188 -7.363901 12.482982 -7.964534 -0.702063 160.362887 -68.198307 -162.583768 -1.478332 -11.889924 29.403462 -12.491257 -2.344680 1.583660 -3.241878 -13.333427 2.551361 -155.161341 -66.119513 154.424974 14.577501 0.691361 -33.093513 -2.536251 -46.580234 10.877941 -120.424680 85.801620 -108.308023 -1.457124 -12.452056 -4.730600 -0.179097 0.687040 -0.079363 -9.672438 -50.650251 16.738119 -156.569437 80.794286 -163.939305 -0.082684 -17.352486 7.116060 -0.183737 -0.532594 -0.071514
16.141682 49.941940 54.500781 173.538666 -33.785618 -7.244465 8.157765 23.885797 6.285393 1.136263 3.921267 0.645234 1.838168 6.253533 1.069018 6.503208 19.872186 4.273620 -4.229845 20.067987 4.164155 -8.934235 1.935718 8.833975 -2.786662 -3.314496 -7.385815 12.552540 -7.983239 -0.617938 160.001266 -68.319410 -162.240537 -1.400060 -11.895162 29.451454 -12.405484 -2.362490 1.587472 -3.095982 -13.141550 2.631929 -155.202610 -66.291962 154.449890 14.581823 0.608171 -32.862495 -2.552148 -46.594021 10.891736 -120.463054 85.801824 -108.346097 -1.451885 -12.447434 -4.736377 -0.173168 0.675467 -0.076423 -9.667800 -50.661278 16.755553 -156.494870 80.789604 -163.864294 -0.094345 -17.351949 7.127720 -0.183913 -0.535267 -0.073753
16.144378 49.941815 54.499131 173.536036 -33.740724 -7.247641 8.057433 23.834394 6.255592 1.118364 3.902821 0.641809 1.810008 6.226405 1.063100 6.427119 19.848929 4.255713 -4.229440 19.940226 4.106529 -8.928080 1.692924 8.740651 -2.784706 -3.363219 -7.407242 12.621289 -7.999847 -0.542581 159.741173 -68.466801 -161.991954 -1.334993 -11.892651 29.523864 -12.305479 -2.384154 1.596556 -2.952527 -12.941526 2.708331 -155.184206 -66.449551 154.423917 14.557683 0.528728 -32.638617 -2.567612 -46.638066 10.903542 -120.483539 85.793099 -108.364394 -1.442675 -12.454167 -4.743514 -0.183992 0.676673 -0.074602 -9.666433 -50.703307 16.776349 -156.429300 80.786146 -163.798485 -0.104060 -17.355457 7.137541 -0.182999 -0.532748 -0.072188
